<svg xmlns="http://www.w3.org/2000/svg" version="1.1" xmlns:xlink="http://www.w3.org/1999/xlink" xmlns:svgjs="http://svgjs.com/svgjs" width="1440" height="560" preserveAspectRatio="none" viewBox="0 0 1440 560">
    <g mask="url(&quot;#SvgjsMask1002&quot;)" fill="none">
        <path d="M685.12 609.64C833.99 584.28 912.91 218.02 1144.81 217.75 1376.71 217.48 1471.72 476.93 1604.5 486.55" stroke="rgba(235, 29, 53, 0.5215686274509804)" stroke-width="2"></path>
        <path d="M373.5 597.07C548.77 590.54 672.81 316.41 1013.26 309.18 1353.71 301.95 1486.93 131.66 1653.02 129.98" stroke="rgba(235, 29, 53, 0.5215686274509804)" stroke-width="2"></path>
        <path d="M115.54 671.85C319.54 657.52 467.42 263.14 823.95 262.87 1180.49 262.6 1344.89 505.79 1532.37 509.27" stroke="rgba(235, 29, 53, 0.5215686274509804)" stroke-width="2"></path>
        <path d="M322.13 648.72C448.98 640.54 539.77 401.94 766.21 401.07 992.64 400.2 988.24 471.07 1210.28 471.07 1432.32 471.07 1541.97 401.28 1654.36 401.07" stroke="rgba(235, 29, 53, 0.5215686274509804)" stroke-width="2"></path>
        <path d="M802.7 669.77C916.09 632.86 872.21 305.15 1108.25 303.48 1344.29 301.81 1562.62 442.59 1719.35 443.48" stroke="rgba(235, 29, 53, 0.5215686274509804)" stroke-width="2"></path>
    </g>
    <defs>
        <mask id="SvgjsMask1002">
            <rect width="1440" height="560" fill="#ffffff"></rect>
        </mask>
    </defs>
</svg>