<?xml version="1.0" standalone="no"?>
<!DOCTYPE svg PUBLIC "-//W3C//DTD SVG 20010904//EN"
 "http://www.w3.org/TR/2001/REC-SVG-20010904/DTD/svg10.dtd">
<svg version="1.0" xmlns="http://www.w3.org/2000/svg"
 width="1170.000000pt" height="507.000000pt" viewBox="0 0 1170.000000 507.000000"
 preserveAspectRatio="xMidYMid meet">

<g transform="translate(0.000000,507.000000) scale(0.100000,-0.100000)"
fill="#000000" stroke="none">
<path d="M3260 4190 c0 -98 -30 -235 -72 -330 -11 -24 -21 -49 -22 -56 -1 -7
-7 -18 -13 -25 -17 -22 -23 -71 -8 -65 10 4 11 -2 3 -27 -11 -35 -13 -393 -2
-444 5 -24 3 -33 -7 -33 -10 0 -10 -3 -1 -12 18 -18 14 -32 -5 -17 -12 10 -15
11 -9 1 4 -7 2 -20 -6 -29 -7 -9 -8 -14 -2 -10 7 4 14 -2 17 -15 4 -12 9 -19
12 -16 4 3 1 16 -5 29 -11 19 -10 21 4 16 11 -4 19 0 23 11 3 9 14 29 24 43
10 14 23 48 30 75 7 27 20 60 31 73 18 24 18 24 18 -45 0 -80 -38 -242 -69
-298 -30 -53 -50 -115 -40 -122 5 -3 9 0 9 7 0 7 3 9 7 6 7 -7 163 143 163
157 0 4 14 24 30 43 17 18 30 38 30 44 0 5 11 27 25 49 14 22 40 83 57 137 31
91 33 107 33 233 0 121 -3 143 -28 215 -15 44 -27 89 -27 100 0 11 -14 44 -30
74 -17 30 -30 59 -30 64 0 5 -13 32 -30 59 -16 26 -30 54 -30 61 -1 6 -14 28
-30 47 -17 19 -30 40 -30 47 0 7 -4 13 -10 13 -6 0 -10 -27 -10 -60z"/>
<path d="M3106 3674 c-5 -14 -4 -15 9 -4 17 14 19 20 6 20 -5 0 -12 -7 -15
-16z"/>
<path d="M3105 3641 c-3 -5 -2 -12 3 -15 5 -3 9 1 9 9 0 17 -3 19 -12 6z"/>
<path d="M8538 2923 c-80 -100 -100 -131 -108 -169 -4 -19 -7 -34 -5 -34 2 0
35 36 75 80 56 63 75 91 85 132 8 29 13 54 11 56 -2 2 -28 -27 -58 -65z"/>
<path d="M3495 2860 c-170 -35 -200 -42 -242 -57 -24 -8 -43 -19 -43 -24 0 -6
-3 -8 -7 -6 -12 7 -53 -11 -53 -22 0 -5 6 -11 13 -14 6 -2 4 -3 -5 -2 -9 2
-19 -4 -22 -12 -9 -22 -8 -24 12 -14 68 34 135 61 152 61 18 0 37 6 108 37 18
8 56 18 85 23 28 5 86 18 127 29 l75 19 -55 0 c-30 0 -95 -8 -145 -18z"/>
<path d="M3462 2604 c-237 -118 -385 -701 -267 -1054 56 -167 166 -223 318
-163 21 9 40 13 42 11 9 -8 -24 -176 -46 -233 -15 -39 -29 -60 -49 -70 -53
-27 -89 -18 -150 41 l-35 33 -33 -39 -33 -40 26 -25 c32 -33 84 -55 129 -55
53 0 134 48 172 102 34 50 75 164 93 258 12 64 71 556 71 594 0 26 0 26 -88
26 -93 0 -113 -7 -159 -60 -27 -30 -67 -109 -60 -117 3 -3 21 9 39 26 36 34
92 54 141 49 38 -4 37 14 11 -237 l-19 -184 -32 -13 c-116 -49 -228 36 -264
198 -19 85 -16 344 4 468 33 191 118 383 195 435 70 47 171 25 207 -46 9 -17
19 -55 22 -85 6 -54 17 -69 27 -36 11 37 28 182 23 195 -7 19 -113 47 -178 47
-39 0 -70 -7 -107 -26z"/>
<path d="M4188 2622 c-29 -12 -84 -69 -111 -114 -43 -75 -75 -197 -92 -355
-67 -627 -70 -642 -145 -664 -41 -12 -73 -51 -86 -104 -5 -22 -3 -25 22 -25
16 0 111 -5 211 -11 144 -9 189 -9 213 1 38 16 120 136 120 176 l0 28 -27 -27
c-51 -48 -90 -57 -243 -57 -77 0 -140 3 -140 8 0 4 15 30 34 58 62 92 87 200
116 499 42 430 67 525 139 525 48 0 75 -40 79 -120 6 -108 26 -91 40 33 l12
102 -30 28 c-30 27 -73 34 -112 19z"/>
<path d="M4732 2609 c-116 -57 -233 -279 -278 -524 -27 -147 -25 -421 4 -526
41 -151 108 -222 207 -221 100 1 183 70 255 212 81 163 118 323 127 555 15
386 -120 600 -315 504z m143 -62 c55 -55 67 -114 73 -341 5 -226 -5 -332 -48
-495 -44 -168 -111 -287 -175 -311 -78 -30 -131 8 -166 118 -44 140 -36 495
16 711 70 287 197 421 300 318z"/>
<path d="M6930 2618 c-14 -5 -61 -16 -105 -24 -44 -9 -98 -23 -120 -33 -97
-43 -170 -188 -191 -380 l-7 -64 30 21 c45 32 50 41 57 114 15 152 63 240 147
267 41 13 119 5 119 -13 0 -7 -19 -72 -41 -146 -23 -74 -49 -162 -59 -195
-108 -367 -182 -580 -228 -655 -29 -47 -83 -90 -112 -90 -28 0 -71 40 -90 84
l-18 40 -28 -57 -28 -57 20 -27 c50 -67 127 -86 193 -47 59 35 118 139 172
304 l27 85 116 3 c88 2 118 -1 121 -10 3 -7 9 -97 13 -200 4 -103 11 -190 14
-194 4 -3 48 6 97 21 64 20 92 34 96 46 9 27 -3 40 -30 33 -50 -12 -78 47 -90
186 -9 121 -35 755 -35 877 0 61 -3 114 -7 116 -5 3 -19 0 -33 -5z m-32 -638
c5 -85 7 -158 5 -162 -2 -5 -51 -8 -109 -8 -96 0 -105 2 -100 18 3 9 33 109
66 222 34 113 73 243 88 290 l27 85 7 -145 c4 -80 12 -215 16 -300z"/>
<path d="M7835 2620 c-30 -12 -91 -82 -119 -137 -48 -96 -65 -181 -101 -518
-46 -421 -58 -466 -130 -479 -31 -6 -39 -14 -62 -61 -15 -30 -25 -56 -22 -59
2 -2 98 -9 212 -16 162 -9 215 -9 237 0 39 16 120 135 120 174 l0 30 -27 -27
c-51 -48 -90 -57 -243 -57 -77 0 -140 3 -140 6 0 4 16 31 35 60 65 98 84 183
121 544 39 394 64 480 135 480 51 0 79 -47 79 -136 0 -41 4 -54 15 -54 8 0 15
8 15 18 0 9 5 55 10 102 l10 85 -30 28 c-31 28 -74 34 -115 17z"/>
<path d="M8382 2609 c-231 -115 -381 -754 -257 -1096 45 -126 99 -176 189
-176 128 0 234 119 316 356 85 246 92 626 15 794 -60 131 -155 175 -263 122z
m143 -62 c43 -43 64 -113 76 -260 24 -296 -46 -677 -151 -820 -98 -134 -209
-93 -252 93 -17 72 -17 417 0 533 32 218 116 419 196 468 48 30 92 25 131 -14z"/>
<path d="M10248 2597 c-44 -35 -78 -88 -78 -120 l0 -28 26 20 c36 28 60 26
140 -11 57 -27 81 -33 137 -33 37 0 67 -3 67 -6 0 -4 -82 -173 -181 -375 -100
-203 -208 -423 -240 -489 -44 -89 -59 -131 -59 -162 0 -24 2 -43 5 -43 3 0 29
12 57 26 69 35 118 34 210 -4 127 -53 162 -47 218 38 33 52 68 146 57 156 -2
2 -15 -13 -28 -33 -13 -21 -36 -44 -51 -53 -26 -14 -34 -12 -142 24 -112 38
-146 41 -198 21 -32 -13 -60 -72 345 755 76 157 101 217 105 258 2 28 2 52 -1
52 -2 0 -18 -7 -33 -15 -46 -24 -117 -18 -201 15 -89 36 -119 37 -155 7z"/>
<path d="M5385 2587 c-110 -37 -177 -105 -218 -223 -25 -71 -52 -232 -41 -243
2 -3 20 10 38 28 30 29 35 41 40 99 9 90 40 180 76 224 49 59 141 89 126 41
-3 -10 -17 -135 -31 -278 -33 -340 -64 -599 -77 -653 -15 -60 -52 -102 -89
-102 -25 0 -33 -7 -56 -55 -15 -30 -25 -56 -22 -59 2 -2 62 -8 133 -13 l129
-8 29 60 28 60 -81 3 c-44 2 -79 6 -77 10 2 4 20 36 40 72 45 79 85 213 94
315 l7 75 43 0 43 0 15 -52 c105 -374 133 -460 168 -510 28 -40 60 -36 96 10
48 61 94 149 90 174 -4 21 -5 21 -24 -11 -30 -54 -69 -95 -82 -87 -22 13 -40
60 -111 285 l-71 222 45 55 c108 132 151 304 110 440 -16 54 -39 81 -95 110
-45 23 -216 30 -275 11z m212 -57 c45 -27 61 -57 71 -130 14 -98 -2 -222 -39
-300 -45 -97 -61 -110 -131 -110 -40 0 -58 4 -58 13 0 6 9 89 19 182 11 94 22
206 26 250 4 44 9 88 11 98 7 23 60 22 101 -3z"/>
<path d="M6015 2547 c-14 -30 -25 -57 -25 -60 0 -4 22 -7 49 -7 28 0 52 -3 54
-7 4 -8 -13 -184 -57 -599 -34 -316 -55 -384 -116 -384 -31 0 -58 -30 -85 -93
l-14 -34 91 -7 c178 -12 174 -13 203 44 14 27 25 54 25 60 0 6 -30 10 -75 10
-41 0 -75 2 -75 4 0 2 20 41 44 87 68 129 82 198 121 599 33 339 29 320 70
320 30 0 36 6 64 55 17 30 31 57 31 60 0 3 -63 5 -140 5 l-139 0 -26 -53z"/>
<path d="M9025 2582 c-71 -26 -85 -35 -127 -79 -66 -67 -106 -182 -121 -340
-3 -24 -1 -43 2 -43 4 0 21 15 38 33 27 28 33 43 41 113 10 87 49 189 86 223
25 23 95 55 104 46 13 -13 -80 -884 -102 -960 -18 -59 -40 -83 -82 -91 -27 -5
-37 -15 -61 -59 -15 -30 -25 -56 -23 -59 3 -2 63 -8 134 -13 l128 -8 24 47
c38 75 36 78 -51 78 -41 0 -75 3 -75 6 0 3 8 18 19 32 71 102 105 230 131 487
24 240 49 478 56 523 4 27 9 32 33 32 41 0 93 -39 119 -90 22 -42 23 -55 20
-175 -3 -122 -5 -134 -36 -200 -39 -83 -73 -122 -116 -131 -61 -13 -80 -54
-25 -54 47 0 122 46 162 99 80 105 129 297 107 424 -23 131 -75 169 -235 174
-79 3 -111 -1 -150 -15z"/>
<path d="M9701 2580 c-29 -11 -68 -31 -87 -45 -78 -60 -138 -197 -151 -343
l-6 -76 31 23 c42 30 48 43 55 126 10 133 71 238 152 265 20 7 39 10 42 7 3
-4 -4 -91 -16 -194 -11 -103 -30 -280 -41 -393 -39 -395 -52 -439 -129 -460
-30 -8 -41 -19 -65 -65 -16 -31 -27 -57 -25 -59 2 -2 92 -11 199 -18 237 -18
242 -17 300 73 22 34 40 73 40 87 0 24 -1 24 -40 -12 -40 -36 -41 -36 -123
-35 -45 1 -113 4 -150 8 l-68 6 36 55 c61 95 86 177 105 345 6 55 14 103 18
107 6 6 65 -2 129 -17 18 -4 26 2 43 35 l20 40 -89 0 c-49 0 -92 4 -95 9 -6 8
27 378 40 459 5 31 6 32 55 32 98 0 149 -44 149 -130 0 -48 17 -53 24 -7 3 17
12 67 19 109 8 43 11 80 9 83 -3 3 -78 5 -166 5 -133 -1 -170 -4 -215 -20z"/>
<path d="M9163 1059 c-94 -9 -115 -17 -87 -33 20 -11 622 -23 1217 -25 l307
-1 0 35 0 35 -677 -1 c-373 -1 -715 -5 -760 -10z"/>
<path d="M9630 861 c-15 -28 -12 -33 10 -19 21 13 27 38 10 38 -5 0 -14 -9
-20 -19z"/>
<path d="M6777 780 c-56 -44 -59 -139 -6 -184 45 -38 99 -36 133 5 14 17 26
35 26 41 0 6 -10 -4 -23 -23 -31 -47 -85 -53 -116 -13 -32 40 -29 122 5 163
29 35 19 41 -19 11z"/>
<path d="M6878 776 c11 -12 24 -30 30 -41 10 -17 11 -15 12 20 0 38 -2 40 -30
41 -31 1 -31 1 -12 -20z"/>
<path d="M6998 698 c3 -88 1 -104 -14 -115 -15 -11 -2 -13 79 -13 96 0 97 0
97 24 0 13 2 33 5 43 6 16 5 16 -7 -1 -29 -42 -49 -56 -82 -56 -25 0 -36 5
-39 18 -9 32 -5 177 5 190 8 9 3 12 -18 12 l-29 0 3 -102z"/>
<path d="M7109 787 c13 -8 30 -25 38 -38 13 -23 13 -23 11 11 -3 32 -6 35 -38
38 -34 2 -34 2 -11 -11z"/>
<path d="M7218 789 c8 -8 12 -44 12 -102 0 -74 -3 -92 -17 -103 -16 -12 -12
-13 32 -13 42 0 47 1 30 11 -11 6 -23 16 -27 22 -11 15 -10 146 1 146 4 0 33
-33 64 -73 31 -40 65 -81 77 -92 l20 -18 0 98 c0 78 4 102 17 117 15 17 14 18
-22 18 -36 0 -37 -1 -22 -18 12 -14 17 -37 17 -86 0 -37 -4 -66 -8 -64 -5 2
-38 39 -73 83 -44 55 -72 81 -89 83 -20 3 -23 1 -12 -9z"/>
<path d="M7465 764 c-7 -39 0 -58 11 -28 4 10 16 29 27 42 l20 22 -25 0 c-22
0 -27 -6 -33 -36z"/>
<path d="M7549 715 c4 -100 -2 -132 -27 -138 -9 -3 8 -5 38 -5 30 0 47 2 37 5
-16 4 -18 15 -15 114 3 103 2 109 -17 109 -19 0 -20 -5 -16 -85z"/>
<path d="M7623 782 c9 -9 20 -29 26 -42 9 -23 10 -21 10 18 1 39 -1 42 -26 42
-24 0 -25 -1 -10 -18z"/>
<path d="M7708 788 c8 -8 12 -46 12 -105 0 -88 -1 -94 -22 -103 -18 -7 -9 -9
37 -9 45 0 54 3 38 9 -20 8 -22 15 -22 104 1 79 4 98 17 106 13 7 6 9 -27 10
-35 0 -42 -3 -33 -12z"/>
<path d="M7808 790 c27 -11 36 -32 28 -65 -4 -16 -13 -25 -26 -25 -11 0 -20
-4 -20 -10 0 -13 4 -13 44 4 45 19 55 50 25 82 -13 14 -33 24 -48 23 -26 0
-26 0 -3 -9z"/>
<path d="M7974 782 c-64 -51 -57 -169 11 -200 46 -21 90 -15 124 17 28 26 31
35 31 86 0 51 -3 60 -31 86 -17 16 -38 29 -46 29 -9 0 -4 -9 13 -23 22 -19 28
-34 31 -78 6 -74 -21 -119 -72 -119 -25 0 -38 6 -49 23 -33 52 -25 147 15 180
13 10 16 17 8 17 -8 0 -24 -8 -35 -18z"/>
<path d="M8293 789 c14 -8 17 -25 17 -97 0 -89 -4 -104 -30 -115 -8 -4 23 -6
68 -4 81 2 85 3 113 35 23 26 29 42 29 78 0 39 -5 51 -34 80 -33 33 -37 34
-107 34 -55 -1 -70 -3 -56 -11z m136 -25 c16 -20 21 -41 21 -83 -1 -69 -16
-91 -69 -98 l-41 -6 0 107 0 106 34 0 c25 0 40 -7 55 -26z"/>
<path d="M8558 788 c8 -8 12 -46 12 -105 0 -77 -3 -94 -17 -102 -13 -8 8 -10
80 -11 l97 0 -1 43 c0 32 -2 37 -8 22 -15 -36 -47 -57 -83 -53 l-33 3 -2 100
c-2 69 2 102 10 107 7 4 -5 8 -27 8 -31 0 -37 -3 -28 -12z"/>
<path d="M8672 789 c10 -5 24 -19 33 -32 15 -21 15 -21 15 11 0 30 -2 32 -32
32 -27 -1 -30 -2 -16 -11z"/>
<path d="M8888 788 c8 -8 12 -46 12 -105 0 -88 -1 -94 -22 -103 -16 -6 8 -9
77 -7 l100 2 3 35 3 35 -26 -32 c-22 -27 -33 -33 -65 -33 l-39 0 0 98 c1 53 5
103 11 110 8 9 2 12 -28 12 -30 0 -35 -3 -26 -12z"/>
<path d="M9000 787 c13 -7 30 -24 37 -37 12 -24 13 -24 13 13 0 36 -1 37 -37
37 -37 0 -37 -1 -13 -13z"/>
<path d="M9121 774 c-37 -47 -20 -78 53 -99 67 -20 83 -36 68 -70 -9 -20 -19
-25 -47 -25 -34 0 -43 6 -79 55 -14 19 -15 17 -16 -23 0 -38 2 -42 18 -33 11
6 24 6 33 0 27 -17 75 -10 97 14 42 45 23 89 -45 107 -47 13 -83 35 -83 52 0
4 9 17 20 28 11 11 16 20 11 20 -5 0 -19 -12 -30 -26z"/>
<path d="M9215 775 c14 -13 25 -29 25 -35 0 -5 5 -10 10 -10 11 0 14 53 3 63
-3 4 -12 2 -19 -4 -8 -7 -14 -7 -19 1 -3 5 -10 10 -15 10 -5 0 2 -11 15 -25z"/>
<path d="M9307 793 c-4 -3 -7 -22 -7 -42 l1 -36 13 31 c8 18 22 37 33 43 16 9
15 10 -8 11 -14 0 -29 -3 -32 -7z"/>
<path d="M9378 691 c3 -108 3 -110 -20 -114 -13 -2 4 -5 37 -5 47 -1 55 1 37
9 -23 9 -24 12 -20 114 3 99 2 105 -17 105 -19 0 -20 -6 -17 -109z"/>
<path d="M9464 769 c14 -17 26 -35 26 -41 0 -6 3 -9 6 -6 3 3 2 22 -1 42 -6
30 -11 36 -32 36 l-25 0 26 -31z"/>
<path d="M9548 793 c8 -3 12 -35 12 -108 0 -90 -2 -104 -17 -108 -10 -3 26 -5
80 -6 96 -1 97 -1 97 23 0 13 3 31 6 40 3 9 2 16 -4 16 -5 0 -13 -11 -16 -25
-8 -31 -38 -47 -79 -43 l-32 3 -2 95 c-1 55 3 100 9 107 8 10 2 13 -28 12 -22
0 -33 -3 -26 -6z"/>
<path d="M9673 784 c15 -8 27 -22 27 -30 0 -8 4 -13 9 -10 4 3 6 17 3 31 -3
20 -10 25 -36 25 l-31 -1 28 -15z"/>
<path d="M9757 763 c-7 -41 -1 -57 9 -27 4 10 16 29 27 42 l20 22 -25 0 c-22
0 -26 -6 -31 -37z"/>
<path d="M9838 695 c4 -102 3 -105 -20 -114 -18 -8 -12 -10 32 -9 30 0 47 2
37 5 -16 4 -18 15 -15 114 3 103 2 109 -17 109 -19 0 -20 -6 -17 -105z"/>
<path d="M9913 782 c9 -9 20 -29 26 -42 9 -23 10 -21 10 18 1 39 -1 42 -26 42
-24 0 -25 -1 -10 -18z"/>
<path d="M9998 793 c8 -3 12 -35 12 -108 0 -90 -2 -104 -17 -108 -10 -3 7 -5
37 -5 30 0 47 2 38 5 -16 4 -18 18 -18 108 0 73 4 105 13 108 6 3 -8 5 -33 5
-25 0 -39 -2 -32 -5z"/>
<path d="M10163 778 c-56 -62 -59 -124 -9 -174 27 -27 42 -34 73 -34 44 0 55
6 72 37 19 36 12 40 -9 6 -16 -27 -26 -33 -52 -33 -56 0 -78 30 -78 105 0 49
13 82 39 102 15 11 15 12 0 13 -8 0 -25 -10 -36 -22z"/>
<path d="M10266 779 c12 -13 25 -33 30 -44 7 -17 9 -15 12 14 2 18 -1 38 -7
44 -8 8 -11 7 -11 -1 0 -10 -5 -10 -22 -1 l-23 12 21 -24z"/>
<path d="M10441 782 c-6 -11 -24 -55 -41 -98 -16 -42 -37 -85 -46 -95 -16 -18
-16 -19 21 -19 36 0 37 1 19 14 -18 14 -18 16 -2 48 9 18 22 52 29 76 7 23 17
41 23 39 5 -2 17 -23 26 -48 9 -24 21 -54 28 -66 17 -30 15 -51 -5 -56 -10 -3
4 -5 31 -6 41 -1 47 1 35 12 -9 6 -33 55 -54 107 -45 112 -50 118 -64 92z"/>
<path d="M8660 731 c0 -5 -7 -17 -17 -26 -10 -10 -12 -19 -6 -23 5 -4 15 -16
21 -27 10 -17 11 -12 12 33 0 28 -2 52 -5 52 -3 0 -5 -4 -5 -9z"/>
<path d="M7078 709 c-17 -18 -17 -20 2 -39 l20 -20 0 40 c0 22 -1 40 -2 39 -2
0 -11 -9 -20 -20z"/>
<path d="M9638 709 c-17 -18 -17 -20 2 -39 l20 -20 0 40 c0 22 -1 40 -2 39 -2
0 -11 -9 -20 -20z"/>
<path d="M8970 703 c-10 -12 -11 -18 -2 -21 7 -2 12 -10 12 -18 0 -9 5 -12 10
-9 12 7 14 65 3 65 -5 -1 -15 -8 -23 -17z"/>
<path d="M7816 653 c18 -70 21 -78 38 -81 22 -5 46 16 45 37 -1 13 -2 13 -6
-2 -7 -26 -25 -16 -36 19 -18 54 -53 78 -41 27z"/>
</g>
</svg>
